<svg xmlns="http://www.w3.org/2000/svg" xmlns:xlink="http://www.w3.org/1999/xlink" width="500" zoomAndPan="magnify" viewBox="0 0 375 374.999991" height="500" preserveAspectRatio="xMidYMid meet" version="1.0"><path fill="#231f20" d="M 290.121094 192.386719 L 335.976562 159.308594 L 290.871094 134.5 C 288.617188 132.996094 285.609375 132.996094 283.351562 134.5 L 240.5 161.5625 Z M 290.121094 192.386719 " fill-opacity="1" fill-rule="nonzero"/><path fill="#231f20" d="M 343.496094 172.839844 C 342.746094 173.59375 342.746094 174.34375 341.992188 174.34375 L 296.132812 205.917969 L 293.878906 254.035156 L 293.878906 257.039062 L 335.226562 224.714844 C 336.730469 223.210938 337.480469 221.707031 338.234375 220.203125 L 345 171.335938 Z M 343.496094 172.839844 " fill-opacity="1" fill-rule="nonzero"/><path fill="#231f20" d="M 222.457031 257.792969 L 223.960938 309.664062 L 223.960938 313.425781 L 276.585938 272.078125 C 278.089844 270.574219 279.59375 269.070312 279.59375 266.8125 L 282.601562 215.691406 Z M 222.457031 257.792969 " fill-opacity="1" fill-rule="nonzero"/><path fill="#231f20" d="M 99.917969 66.835938 L 190.882812 32.253906 L 128.484375 2.183594 C 126.980469 1.433594 124.726562 1.433594 123.222656 1.433594 L 37.519531 28.496094 Z M 99.917969 66.835938 " fill-opacity="1" fill-rule="nonzero"/><path fill="#231f20" d="M 197.648438 45.789062 L 201.40625 133.746094 C 201.40625 136.753906 199.90625 139.761719 197.648438 140.511719 L 122.46875 179.605469 L 107.433594 79.617188 Z M 91.648438 79.617188 L 30 42.027344 L 48.792969 132.996094 C 48.792969 134.5 50.296875 136.003906 51.800781 137.507812 L 106.683594 180.359375 Z M 91.648438 79.617188 " fill-opacity="1" fill-rule="nonzero"/><path fill="#231f20" d="M 134.5 370.5625 L 124.726562 308.164062 L 77.363281 262.304688 L 88.640625 322.445312 C 88.640625 323.949219 89.390625 324.703125 90.894531 326.207031 L 136.003906 373.566406 Z M 134.5 370.5625 " fill-opacity="1" fill-rule="nonzero"/><path fill="#231f20" d="M 140.511719 306.660156 L 149.535156 369.058594 L 150.285156 373.566406 L 206.671875 328.460938 C 208.925781 326.957031 209.679688 324.703125 209.679688 322.445312 L 208.175781 263.054688 Z M 140.511719 306.660156 " fill-opacity="1" fill-rule="nonzero"/><path fill="#231f20" d="M 110.441406 202.910156 L 54.808594 158.554688 L 70.597656 238.246094 C 70.597656 239.75 71.347656 241.253906 72.851562 242.003906 L 122.46875 288.617188 Z M 110.441406 202.910156 " fill-opacity="1" fill-rule="nonzero"/><path fill="#231f20" d="M 126.980469 201.40625 L 137.507812 288.617188 L 202.160156 245.011719 C 204.414062 243.507812 205.917969 241.253906 205.167969 238.246094 L 202.160156 158.554688 Z M 126.980469 201.40625 " fill-opacity="1" fill-rule="nonzero"/><path fill="#231f20" d="M 220.953125 238.246094 C 220.953125 239.75 220.953125 242.003906 220.203125 243.507812 L 274.332031 203.664062 L 228.472656 173.59375 C 226.21875 172.089844 223.210938 172.089844 220.203125 173.59375 L 218.699219 174.34375 Z M 220.953125 238.246094 " fill-opacity="1" fill-rule="nonzero"/></svg>